<svg width="44" height="44" viewBox="0 0 44 44" fill="none" xmlns="http://www.w3.org/2000/svg">
<path d="M39.6 0L4.4 0C1.98 0 0 1.98 0 4.4L0 39.6C0 42.02 1.98 44 4.4 44H39.6C42.02 44 44 42.02 44 39.6V4.4C44 1.98 42.02 0 39.6 0ZM34.9043 15.7673C34.6742 15.9538 34.5374 16.2333 34.5253 16.5292C34.1211 26.3971 27.7897 33.2268 18.26 33.66C16.5152 33.7569 14.9839 33.5549 13.5909 33.1668C12.5275 32.8705 12.9415 30.8103 13.9879 30.4587C14.483 30.2923 14.9618 30.0977 15.4127 29.8789C16.2063 29.4936 15.9083 28.4123 15.1 28.0588C13.7106 27.451 12.7259 26.3781 12.0922 24.9479C11.9941 24.7264 12.2529 24.4966 12.4947 24.5106C12.837 24.5304 12.8931 23.8459 12.596 23.6747C11.1084 22.8176 10.0979 21.5135 9.77111 19.349C9.71766 18.995 10.0926 18.7317 10.4286 18.8554C10.8477 19.0096 11.1568 18.3636 10.8999 17.9982C9.90542 16.5841 9.36815 14.3542 9.83985 12.4671C10.0026 11.8161 10.7999 11.717 11.2786 12.1874C13.7246 14.5914 16.7119 16.5832 21.0602 17.226C21.7354 17.3258 22.2653 16.6877 22.2534 16.0052C22.1656 10.9635 28.9418 8.44721 32.177 11.6697C32.4294 11.9211 32.7784 12.0741 33.1261 11.9963C33.8389 11.8369 34.457 11.5896 35.0343 11.3352C35.55 11.1081 36.0486 11.5638 35.7652 12.0508C35.6557 12.239 35.537 12.4159 35.4098 12.584C35.08 13.0203 35.4969 13.7393 36.0182 13.5738C36.4322 13.4423 36.7743 13.8103 36.527 14.1674C36.1325 14.7373 35.5348 15.2564 34.9043 15.7673Z" fill="black"/>
</svg>
